<mxfile host="Electron" agent="Mozilla/5.0 (Windows NT 10.0; Win64; x64) AppleWebKit/537.36 (KHTML, like Gecko) draw.io/27.0.9 Chrome/134.0.6998.205 Electron/35.4.0 Safari/537.36" version="27.0.9">
  <diagram name="Page-1" id="0wo69q9bjTKq0ZUKShtO">
    <mxGraphModel dx="848" dy="759" grid="1" gridSize="10" guides="1" tooltips="1" connect="1" arrows="1" fold="1" page="1" pageScale="1" pageWidth="850" pageHeight="1100" math="0" shadow="0">
      <root>
        <mxCell id="0" />
        <mxCell id="1" parent="0" />
        <mxCell id="00xhQrXzOqY6Nz8Qy6sA-2" value="&amp;lt;&amp;lt;Questions&amp;gt;&amp;gt;&amp;nbsp;" style="swimlane;fontStyle=0;childLayout=stackLayout;horizontal=1;startSize=30;horizontalStack=0;resizeParent=1;resizeParentMax=0;resizeLast=0;collapsible=1;marginBottom=0;whiteSpace=wrap;html=1;" vertex="1" parent="1">
          <mxGeometry x="40" y="40" width="180" height="210" as="geometry" />
        </mxCell>
        <mxCell id="00xhQrXzOqY6Nz8Qy6sA-3" value="+Header : String" style="text;strokeColor=none;fillColor=none;align=left;verticalAlign=middle;spacingLeft=4;spacingRight=4;overflow=hidden;points=[[0,0.5],[1,0.5]];portConstraint=eastwest;rotatable=0;whiteSpace=wrap;html=1;" vertex="1" parent="00xhQrXzOqY6Nz8Qy6sA-2">
          <mxGeometry y="30" width="180" height="30" as="geometry" />
        </mxCell>
        <mxCell id="00xhQrXzOqY6Nz8Qy6sA-5" value="+Mark : int&amp;nbsp;" style="text;strokeColor=none;fillColor=none;align=left;verticalAlign=middle;spacingLeft=4;spacingRight=4;overflow=hidden;points=[[0,0.5],[1,0.5]];portConstraint=eastwest;rotatable=0;whiteSpace=wrap;html=1;" vertex="1" parent="00xhQrXzOqY6Nz8Qy6sA-2">
          <mxGeometry y="60" width="180" height="30" as="geometry" />
        </mxCell>
        <mxCell id="00xhQrXzOqY6Nz8Qy6sA-4" value="+Body : String" style="text;strokeColor=none;fillColor=none;align=left;verticalAlign=middle;spacingLeft=4;spacingRight=4;overflow=hidden;points=[[0,0.5],[1,0.5]];portConstraint=eastwest;rotatable=0;whiteSpace=wrap;html=1;" vertex="1" parent="00xhQrXzOqY6Nz8Qy6sA-2">
          <mxGeometry y="90" width="180" height="30" as="geometry" />
        </mxCell>
        <mxCell id="00xhQrXzOqY6Nz8Qy6sA-8" value="+Answers: Answer[]" style="text;html=1;align=left;verticalAlign=middle;resizable=0;points=[];autosize=1;strokeColor=none;fillColor=none;" vertex="1" parent="00xhQrXzOqY6Nz8Qy6sA-2">
          <mxGeometry y="120" width="180" height="30" as="geometry" />
        </mxCell>
        <mxCell id="00xhQrXzOqY6Nz8Qy6sA-9" value="+CorrectAnswer: Answer" style="text;html=1;align=left;verticalAlign=middle;resizable=0;points=[];autosize=1;strokeColor=none;fillColor=none;" vertex="1" parent="00xhQrXzOqY6Nz8Qy6sA-2">
          <mxGeometry y="150" width="180" height="30" as="geometry" />
        </mxCell>
        <mxCell id="00xhQrXzOqY6Nz8Qy6sA-11" value="" style="endArrow=none;html=1;rounded=0;" edge="1" parent="00xhQrXzOqY6Nz8Qy6sA-2" source="00xhQrXzOqY6Nz8Qy6sA-10">
          <mxGeometry width="50" height="50" relative="1" as="geometry">
            <mxPoint x="20" y="180" as="sourcePoint" />
            <mxPoint x="180" y="180" as="targetPoint" />
          </mxGeometry>
        </mxCell>
        <mxCell id="00xhQrXzOqY6Nz8Qy6sA-12" value="" style="endArrow=none;html=1;rounded=0;entryX=0.994;entryY=-0.007;entryDx=0;entryDy=0;entryPerimeter=0;exitX=0.003;exitY=0.047;exitDx=0;exitDy=0;exitPerimeter=0;" edge="1" parent="00xhQrXzOqY6Nz8Qy6sA-2" source="00xhQrXzOqY6Nz8Qy6sA-10" target="00xhQrXzOqY6Nz8Qy6sA-10">
          <mxGeometry width="50" height="50" relative="1" as="geometry">
            <mxPoint x="-15" y="179" as="sourcePoint" />
            <mxPoint x="195" y="179" as="targetPoint" />
          </mxGeometry>
        </mxCell>
        <mxCell id="00xhQrXzOqY6Nz8Qy6sA-10" value="DisplayQuestion(): abstract void" style="text;html=1;align=center;verticalAlign=middle;resizable=0;points=[];autosize=1;strokeColor=none;fillColor=none;" vertex="1" parent="00xhQrXzOqY6Nz8Qy6sA-2">
          <mxGeometry y="180" width="180" height="30" as="geometry" />
        </mxCell>
        <mxCell id="00xhQrXzOqY6Nz8Qy6sA-15" value="T&amp;amp;F" style="swimlane;fontStyle=0;childLayout=stackLayout;horizontal=1;startSize=30;horizontalStack=0;resizeParent=1;resizeParentMax=0;resizeLast=0;collapsible=1;marginBottom=0;whiteSpace=wrap;html=1;" vertex="1" parent="1">
          <mxGeometry x="9" y="320" width="140" height="60" as="geometry" />
        </mxCell>
        <mxCell id="00xhQrXzOqY6Nz8Qy6sA-16" value="DisplayQuestion()" style="text;strokeColor=none;fillColor=none;align=left;verticalAlign=middle;spacingLeft=4;spacingRight=4;overflow=hidden;points=[[0,0.5],[1,0.5]];portConstraint=eastwest;rotatable=0;whiteSpace=wrap;html=1;" vertex="1" parent="00xhQrXzOqY6Nz8Qy6sA-15">
          <mxGeometry y="30" width="140" height="30" as="geometry" />
        </mxCell>
        <mxCell id="00xhQrXzOqY6Nz8Qy6sA-19" value="&lt;code data-end=&quot;518&quot; data-start=&quot;505&quot;&gt;MCQ&lt;/code&gt;" style="swimlane;fontStyle=0;childLayout=stackLayout;horizontal=1;startSize=30;horizontalStack=0;resizeParent=1;resizeParentMax=0;resizeLast=0;collapsible=1;marginBottom=0;whiteSpace=wrap;html=1;" vertex="1" parent="1">
          <mxGeometry x="380" y="320" width="140" height="60" as="geometry" />
        </mxCell>
        <mxCell id="00xhQrXzOqY6Nz8Qy6sA-20" value="DisplayQuestion()" style="text;strokeColor=none;fillColor=none;align=left;verticalAlign=middle;spacingLeft=4;spacingRight=4;overflow=hidden;points=[[0,0.5],[1,0.5]];portConstraint=eastwest;rotatable=0;whiteSpace=wrap;html=1;" vertex="1" parent="00xhQrXzOqY6Nz8Qy6sA-19">
          <mxGeometry y="30" width="140" height="30" as="geometry" />
        </mxCell>
        <mxCell id="00xhQrXzOqY6Nz8Qy6sA-23" value="Answer" style="swimlane;fontStyle=0;childLayout=stackLayout;horizontal=1;startSize=30;horizontalStack=0;resizeParent=1;resizeParentMax=0;resizeLast=0;collapsible=1;marginBottom=0;whiteSpace=wrap;html=1;" vertex="1" parent="1">
          <mxGeometry x="450" y="40" width="140" height="90" as="geometry" />
        </mxCell>
        <mxCell id="00xhQrXzOqY6Nz8Qy6sA-24" value="+AnswerId: int" style="text;strokeColor=none;fillColor=none;align=left;verticalAlign=middle;spacingLeft=4;spacingRight=4;overflow=hidden;points=[[0,0.5],[1,0.5]];portConstraint=eastwest;rotatable=0;whiteSpace=wrap;html=1;" vertex="1" parent="00xhQrXzOqY6Nz8Qy6sA-23">
          <mxGeometry y="30" width="140" height="30" as="geometry" />
        </mxCell>
        <mxCell id="00xhQrXzOqY6Nz8Qy6sA-26" value="+AnswerText: string" style="text;strokeColor=none;fillColor=none;align=left;verticalAlign=middle;spacingLeft=4;spacingRight=4;overflow=hidden;points=[[0,0.5],[1,0.5]];portConstraint=eastwest;rotatable=0;whiteSpace=wrap;html=1;" vertex="1" parent="00xhQrXzOqY6Nz8Qy6sA-23">
          <mxGeometry y="60" width="140" height="30" as="geometry" />
        </mxCell>
        <mxCell id="00xhQrXzOqY6Nz8Qy6sA-27" value="&lt;code data-end=&quot;713&quot; data-start=&quot;707&quot;&gt;&amp;lt;&amp;lt;Exam&amp;gt;&amp;gt;&lt;/code&gt;" style="swimlane;fontStyle=0;childLayout=stackLayout;horizontal=1;startSize=30;horizontalStack=0;resizeParent=1;resizeParentMax=0;resizeLast=0;collapsible=1;marginBottom=0;whiteSpace=wrap;html=1;" vertex="1" parent="1">
          <mxGeometry x="190" y="470" width="170" height="150" as="geometry" />
        </mxCell>
        <mxCell id="00xhQrXzOqY6Nz8Qy6sA-28" value="+Time: int" style="text;strokeColor=none;fillColor=none;align=left;verticalAlign=middle;spacingLeft=4;spacingRight=4;overflow=hidden;points=[[0,0.5],[1,0.5]];portConstraint=eastwest;rotatable=0;whiteSpace=wrap;html=1;" vertex="1" parent="00xhQrXzOqY6Nz8Qy6sA-27">
          <mxGeometry y="30" width="170" height="30" as="geometry" />
        </mxCell>
        <mxCell id="00xhQrXzOqY6Nz8Qy6sA-29" value="+NumberOfQuestions: int" style="text;strokeColor=none;fillColor=none;align=left;verticalAlign=middle;spacingLeft=4;spacingRight=4;overflow=hidden;points=[[0,0.5],[1,0.5]];portConstraint=eastwest;rotatable=0;whiteSpace=wrap;html=1;" vertex="1" parent="00xhQrXzOqY6Nz8Qy6sA-27">
          <mxGeometry y="60" width="170" height="30" as="geometry" />
        </mxCell>
        <mxCell id="00xhQrXzOqY6Nz8Qy6sA-30" value="+Questions: Question[]" style="text;strokeColor=none;fillColor=none;align=left;verticalAlign=middle;spacingLeft=4;spacingRight=4;overflow=hidden;points=[[0,0.5],[1,0.5]];portConstraint=eastwest;rotatable=0;whiteSpace=wrap;html=1;" vertex="1" parent="00xhQrXzOqY6Nz8Qy6sA-27">
          <mxGeometry y="90" width="170" height="30" as="geometry" />
        </mxCell>
        <mxCell id="00xhQrXzOqY6Nz8Qy6sA-32" value="" style="endArrow=none;html=1;rounded=0;" edge="1" parent="00xhQrXzOqY6Nz8Qy6sA-27">
          <mxGeometry width="50" height="50" relative="1" as="geometry">
            <mxPoint y="120" as="sourcePoint" />
            <mxPoint x="170" y="120" as="targetPoint" />
          </mxGeometry>
        </mxCell>
        <mxCell id="00xhQrXzOqY6Nz8Qy6sA-31" value="ShowExam(): abstract void" style="text;html=1;align=center;verticalAlign=middle;resizable=0;points=[];autosize=1;strokeColor=none;fillColor=none;" vertex="1" parent="00xhQrXzOqY6Nz8Qy6sA-27">
          <mxGeometry y="120" width="170" height="30" as="geometry" />
        </mxCell>
        <mxCell id="00xhQrXzOqY6Nz8Qy6sA-36" value="Practical" style="swimlane;fontStyle=0;childLayout=stackLayout;horizontal=1;startSize=30;horizontalStack=0;resizeParent=1;resizeParentMax=0;resizeLast=0;collapsible=1;marginBottom=0;whiteSpace=wrap;html=1;" vertex="1" parent="1">
          <mxGeometry x="70" y="680" width="140" height="60" as="geometry" />
        </mxCell>
        <mxCell id="00xhQrXzOqY6Nz8Qy6sA-37" value="ShowExam()" style="text;strokeColor=none;fillColor=none;align=left;verticalAlign=middle;spacingLeft=4;spacingRight=4;overflow=hidden;points=[[0,0.5],[1,0.5]];portConstraint=eastwest;rotatable=0;whiteSpace=wrap;html=1;" vertex="1" parent="00xhQrXzOqY6Nz8Qy6sA-36">
          <mxGeometry y="30" width="140" height="30" as="geometry" />
        </mxCell>
        <mxCell id="00xhQrXzOqY6Nz8Qy6sA-40" value="Final" style="swimlane;fontStyle=0;childLayout=stackLayout;horizontal=1;startSize=30;horizontalStack=0;resizeParent=1;resizeParentMax=0;resizeLast=0;collapsible=1;marginBottom=0;whiteSpace=wrap;html=1;" vertex="1" parent="1">
          <mxGeometry x="470" y="680" width="140" height="60" as="geometry" />
        </mxCell>
        <mxCell id="00xhQrXzOqY6Nz8Qy6sA-41" value="ShowExam()" style="text;strokeColor=none;fillColor=none;align=left;verticalAlign=middle;spacingLeft=4;spacingRight=4;overflow=hidden;points=[[0,0.5],[1,0.5]];portConstraint=eastwest;rotatable=0;whiteSpace=wrap;html=1;" vertex="1" parent="00xhQrXzOqY6Nz8Qy6sA-40">
          <mxGeometry y="30" width="140" height="30" as="geometry" />
        </mxCell>
        <mxCell id="00xhQrXzOqY6Nz8Qy6sA-45" value="Subject" style="swimlane;fontStyle=0;childLayout=stackLayout;horizontal=1;startSize=30;horizontalStack=0;resizeParent=1;resizeParentMax=0;resizeLast=0;collapsible=1;marginBottom=0;whiteSpace=wrap;html=1;" vertex="1" parent="1">
          <mxGeometry x="490" y="470" width="140" height="150" as="geometry" />
        </mxCell>
        <mxCell id="00xhQrXzOqY6Nz8Qy6sA-46" value="Id: int" style="text;strokeColor=none;fillColor=none;align=left;verticalAlign=middle;spacingLeft=4;spacingRight=4;overflow=hidden;points=[[0,0.5],[1,0.5]];portConstraint=eastwest;rotatable=0;whiteSpace=wrap;html=1;" vertex="1" parent="00xhQrXzOqY6Nz8Qy6sA-45">
          <mxGeometry y="30" width="140" height="30" as="geometry" />
        </mxCell>
        <mxCell id="00xhQrXzOqY6Nz8Qy6sA-47" value="Name: string" style="text;strokeColor=none;fillColor=none;align=left;verticalAlign=middle;spacingLeft=4;spacingRight=4;overflow=hidden;points=[[0,0.5],[1,0.5]];portConstraint=eastwest;rotatable=0;whiteSpace=wrap;html=1;" vertex="1" parent="00xhQrXzOqY6Nz8Qy6sA-45">
          <mxGeometry y="60" width="140" height="30" as="geometry" />
        </mxCell>
        <mxCell id="00xhQrXzOqY6Nz8Qy6sA-48" value="Exam: Exam" style="text;strokeColor=none;fillColor=none;align=left;verticalAlign=middle;spacingLeft=4;spacingRight=4;overflow=hidden;points=[[0,0.5],[1,0.5]];portConstraint=eastwest;rotatable=0;whiteSpace=wrap;html=1;" vertex="1" parent="00xhQrXzOqY6Nz8Qy6sA-45">
          <mxGeometry y="90" width="140" height="30" as="geometry" />
        </mxCell>
        <mxCell id="00xhQrXzOqY6Nz8Qy6sA-50" value="" style="endArrow=none;html=1;rounded=0;" edge="1" parent="00xhQrXzOqY6Nz8Qy6sA-45">
          <mxGeometry width="50" height="50" relative="1" as="geometry">
            <mxPoint y="120" as="sourcePoint" />
            <mxPoint x="140" y="120" as="targetPoint" />
          </mxGeometry>
        </mxCell>
        <mxCell id="00xhQrXzOqY6Nz8Qy6sA-49" value="CreateExam()" style="text;html=1;align=center;verticalAlign=middle;resizable=0;points=[];autosize=1;strokeColor=none;fillColor=none;" vertex="1" parent="00xhQrXzOqY6Nz8Qy6sA-45">
          <mxGeometry y="120" width="140" height="30" as="geometry" />
        </mxCell>
        <mxCell id="00xhQrXzOqY6Nz8Qy6sA-52" value="" style="endArrow=none;html=1;rounded=0;" edge="1" parent="1">
          <mxGeometry width="50" height="50" relative="1" as="geometry">
            <mxPoint x="360" y="490" as="sourcePoint" />
            <mxPoint x="489" y="490" as="targetPoint" />
          </mxGeometry>
        </mxCell>
        <mxCell id="00xhQrXzOqY6Nz8Qy6sA-54" value="" style="rhombus;whiteSpace=wrap;html=1;" vertex="1" parent="1">
          <mxGeometry x="410" y="40" width="40" height="40" as="geometry" />
        </mxCell>
        <mxCell id="00xhQrXzOqY6Nz8Qy6sA-55" value="" style="endArrow=none;html=1;rounded=0;entryX=0;entryY=0.5;entryDx=0;entryDy=0;exitX=0.994;exitY=0.102;exitDx=0;exitDy=0;exitPerimeter=0;" edge="1" parent="1" source="00xhQrXzOqY6Nz8Qy6sA-2" target="00xhQrXzOqY6Nz8Qy6sA-54">
          <mxGeometry width="50" height="50" relative="1" as="geometry">
            <mxPoint x="320" y="220" as="sourcePoint" />
            <mxPoint x="370" y="170" as="targetPoint" />
          </mxGeometry>
        </mxCell>
        <mxCell id="00xhQrXzOqY6Nz8Qy6sA-56" value="" style="shape=flexArrow;endArrow=classic;html=1;rounded=0;entryX=0.445;entryY=-0.038;entryDx=0;entryDy=0;entryPerimeter=0;exitX=0.667;exitY=0.904;exitDx=0;exitDy=0;exitPerimeter=0;" edge="1" parent="1" source="00xhQrXzOqY6Nz8Qy6sA-10" target="00xhQrXzOqY6Nz8Qy6sA-19">
          <mxGeometry width="50" height="50" relative="1" as="geometry">
            <mxPoint x="110" y="270" as="sourcePoint" />
            <mxPoint x="350" y="360" as="targetPoint" />
            <Array as="points">
              <mxPoint x="160" y="270" />
              <mxPoint x="442" y="270" />
            </Array>
          </mxGeometry>
        </mxCell>
        <mxCell id="00xhQrXzOqY6Nz8Qy6sA-58" value="" style="shape=flexArrow;endArrow=classic;html=1;rounded=0;exitX=0.646;exitY=1.092;exitDx=0;exitDy=0;exitPerimeter=0;entryX=0.5;entryY=0;entryDx=0;entryDy=0;" edge="1" parent="1" source="00xhQrXzOqY6Nz8Qy6sA-10" target="00xhQrXzOqY6Nz8Qy6sA-15">
          <mxGeometry width="50" height="50" relative="1" as="geometry">
            <mxPoint x="300" y="410" as="sourcePoint" />
            <mxPoint x="350" y="360" as="targetPoint" />
            <Array as="points">
              <mxPoint x="160" y="280" />
              <mxPoint x="80" y="280" />
            </Array>
          </mxGeometry>
        </mxCell>
        <mxCell id="00xhQrXzOqY6Nz8Qy6sA-59" value="" style="shape=flexArrow;endArrow=classic;html=1;rounded=0;exitX=0.759;exitY=1.088;exitDx=0;exitDy=0;exitPerimeter=0;entryX=0.367;entryY=-0.03;entryDx=0;entryDy=0;entryPerimeter=0;" edge="1" parent="1" source="00xhQrXzOqY6Nz8Qy6sA-31" target="00xhQrXzOqY6Nz8Qy6sA-40">
          <mxGeometry width="50" height="50" relative="1" as="geometry">
            <mxPoint x="300" y="650" as="sourcePoint" />
            <mxPoint x="520" y="670" as="targetPoint" />
            <Array as="points">
              <mxPoint x="320" y="650" />
              <mxPoint x="520" y="650" />
            </Array>
          </mxGeometry>
        </mxCell>
        <mxCell id="00xhQrXzOqY6Nz8Qy6sA-60" value="" style="shape=flexArrow;endArrow=classic;html=1;rounded=0;entryX=0.5;entryY=0;entryDx=0;entryDy=0;exitX=0.654;exitY=1.057;exitDx=0;exitDy=0;exitPerimeter=0;" edge="1" parent="1" source="00xhQrXzOqY6Nz8Qy6sA-31" target="00xhQrXzOqY6Nz8Qy6sA-36">
          <mxGeometry width="50" height="50" relative="1" as="geometry">
            <mxPoint x="310" y="630" as="sourcePoint" />
            <mxPoint x="360" y="540" as="targetPoint" />
            <Array as="points">
              <mxPoint x="310" y="650" />
              <mxPoint x="140" y="640" />
            </Array>
          </mxGeometry>
        </mxCell>
      </root>
    </mxGraphModel>
  </diagram>
</mxfile>
